<?xml version="1.0" encoding="utf-8"?>
<!-- Generator: Adobe Illustrator 25.0.1, SVG Export Plug-In . SVG Version: 6.00 Build 0)  -->
<svg version="1.1" id="Calque_1" xmlns="http://www.w3.org/2000/svg" xmlns:xlink="http://www.w3.org/1999/xlink" x="0px" y="0px"
	 viewBox="0 0 104 54" style="enable-background:new 0 0 104 54;" xml:space="preserve">
<style type="text/css">
	.st0{enable-background:new    ;}
	.st1{fill:#FFFFFF;}
</style>
<g class="st0">
	<path class="st1" d="M8.4,9.3C8.2,9,7.8,8.7,7.4,8.6C7,8.4,6.6,8.4,6.2,8.4c-0.2,0-0.5,0-0.7,0.1C5.2,8.5,5,8.6,4.8,8.7
		S4.4,9,4.3,9.1C4.1,9.3,4.1,9.6,4.1,9.8c0,0.4,0.2,0.8,0.5,1c0.3,0.2,0.7,0.4,1.2,0.6c0.5,0.2,1,0.3,1.6,0.5
		c0.6,0.2,1.1,0.4,1.6,0.7c0.5,0.3,0.9,0.7,1.2,1.2c0.3,0.5,0.5,1.2,0.5,2c0,0.8-0.1,1.5-0.4,2.1c-0.3,0.6-0.7,1.1-1.2,1.5
		s-1.1,0.7-1.7,0.9s-1.4,0.3-2.1,0.3c-0.9,0-1.8-0.1-2.6-0.4c-0.8-0.3-1.5-0.7-2.2-1.4l2.2-2.4c0.3,0.4,0.7,0.8,1.2,1
		c0.5,0.2,1,0.4,1.5,0.4c0.3,0,0.5,0,0.8-0.1c0.3-0.1,0.5-0.1,0.7-0.3C7,17,7.2,16.8,7.3,16.7c0.1-0.2,0.2-0.4,0.2-0.7
		c0-0.4-0.2-0.8-0.5-1c-0.3-0.2-0.7-0.5-1.2-0.6c-0.5-0.2-1-0.3-1.6-0.5c-0.6-0.2-1.1-0.4-1.6-0.7c-0.5-0.3-0.9-0.7-1.2-1.2
		c-0.3-0.5-0.5-1.1-0.5-1.9c0-0.8,0.2-1.4,0.5-2S2,7,2.5,6.6C3,6.3,3.6,6,4.2,5.8c0.7-0.2,1.3-0.3,2-0.3c0.8,0,1.6,0.1,2.3,0.3
		C9.3,6,10,6.4,10.6,7L8.4,9.3z"/>
	<path class="st1" d="M15.5,4.9v6.7h0c0.1-0.2,0.2-0.4,0.3-0.6s0.4-0.4,0.6-0.5c0.2-0.1,0.5-0.3,0.8-0.4c0.3-0.1,0.6-0.1,1-0.1
		c0.8,0,1.4,0.1,1.8,0.3c0.5,0.2,0.8,0.6,1.1,1s0.4,0.9,0.5,1.5c0.1,0.6,0.1,1.2,0.1,1.8V20h-3v-4.8c0-0.3,0-0.6,0-0.9
		s-0.1-0.6-0.2-0.8s-0.3-0.5-0.5-0.6c-0.2-0.2-0.5-0.2-0.9-0.2s-0.7,0.1-0.9,0.2c-0.2,0.1-0.4,0.3-0.5,0.6c-0.1,0.2-0.2,0.5-0.2,0.8
		s-0.1,0.6-0.1,0.9V20h-3V4.9H15.5z"/>
	<path class="st1" d="M24,10.3h3v1.6h0c0.3-0.6,0.7-1,1.1-1.3c0.4-0.3,1-0.5,1.7-0.5c0.2,0,0.3,0,0.5,0c0.2,0,0.3,0,0.5,0.1v2.7
		c-0.2-0.1-0.4-0.1-0.6-0.1c-0.2,0-0.4-0.1-0.6-0.1c-0.6,0-1,0.1-1.4,0.2c-0.3,0.2-0.6,0.4-0.8,0.7c-0.2,0.3-0.3,0.6-0.4,1
		C27,15,27,15.5,27,15.9V20h-3V10.3z"/>
	<path class="st1" d="M41,18.3c-0.5,0.6-1.1,1.1-1.8,1.4s-1.5,0.5-2.3,0.5c-0.7,0-1.5-0.1-2.1-0.4c-0.7-0.2-1.2-0.6-1.7-1
		c-0.5-0.4-0.9-1-1.1-1.6c-0.3-0.6-0.4-1.3-0.4-2.1c0-0.8,0.1-1.5,0.4-2.1c0.3-0.6,0.7-1.2,1.1-1.6c0.5-0.4,1.1-0.8,1.7-1
		c0.7-0.2,1.4-0.4,2.1-0.4c0.7,0,1.3,0.1,1.9,0.4c0.6,0.2,1,0.6,1.4,1c0.4,0.4,0.7,1,0.9,1.6s0.3,1.3,0.3,2.1v0.9h-7
		c0.1,0.6,0.4,1,0.8,1.4s0.9,0.5,1.5,0.5c0.5,0,0.9-0.1,1.2-0.3s0.6-0.5,0.9-0.8L41,18.3z M38.5,14c0-0.5-0.2-0.9-0.5-1.3
		c-0.3-0.4-0.8-0.5-1.3-0.5c-0.3,0-0.6,0.1-0.9,0.2c-0.3,0.1-0.5,0.2-0.6,0.4c-0.2,0.2-0.3,0.4-0.4,0.6c-0.1,0.2-0.2,0.5-0.2,0.7
		H38.5z"/>
	<path class="st1" d="M53.5,20h-2.8v-1.3h0c-0.1,0.2-0.3,0.4-0.5,0.5c-0.2,0.2-0.4,0.3-0.7,0.5c-0.3,0.1-0.5,0.3-0.9,0.4
		c-0.3,0.1-0.6,0.1-1,0.1c-0.7,0-1.4-0.1-2-0.4c-0.6-0.2-1.1-0.6-1.5-1c-0.4-0.4-0.7-1-1-1.6c-0.2-0.6-0.3-1.3-0.3-2
		c0-0.7,0.1-1.3,0.3-2c0.2-0.6,0.5-1.2,0.9-1.6c0.4-0.5,0.8-0.9,1.4-1.2c0.5-0.3,1.2-0.4,1.9-0.4c0.6,0,1.2,0.1,1.8,0.3s1,0.5,1.3,1
		h0V4.9h3V20z M50.7,15.1c0-0.7-0.2-1.3-0.6-1.8s-1-0.7-1.8-0.7c-0.8,0-1.4,0.2-1.8,0.7s-0.6,1-0.6,1.8c0,0.7,0.2,1.3,0.6,1.8
		s1,0.7,1.8,0.7c0.8,0,1.4-0.2,1.8-0.7S50.7,15.9,50.7,15.1z"/>
	<path class="st1" d="M66.1,20h-2.8v-1.3h0c-0.1,0.2-0.3,0.4-0.5,0.5c-0.2,0.2-0.4,0.3-0.7,0.5s-0.5,0.3-0.9,0.4
		c-0.3,0.1-0.6,0.1-1,0.1c-0.7,0-1.4-0.1-2-0.4c-0.6-0.2-1.1-0.6-1.5-1c-0.4-0.4-0.7-1-1-1.6s-0.3-1.3-0.3-2c0-0.7,0.1-1.3,0.3-2
		c0.2-0.6,0.5-1.2,0.9-1.6c0.4-0.5,0.8-0.9,1.4-1.2c0.5-0.3,1.2-0.4,1.9-0.4c0.6,0,1.2,0.1,1.8,0.3c0.5,0.2,1,0.5,1.3,1h0V4.9h3V20z
		 M63.3,15.1c0-0.7-0.2-1.3-0.6-1.8s-1-0.7-1.8-0.7c-0.8,0-1.4,0.2-1.8,0.7s-0.6,1-0.6,1.8c0,0.7,0.2,1.3,0.6,1.8s1,0.7,1.8,0.7
		c0.8,0,1.3-0.2,1.8-0.7S63.3,15.9,63.3,15.1z"/>
	<path class="st1" d="M68.3,7.2c0-0.5,0.2-0.9,0.5-1.2s0.8-0.5,1.2-0.5c0.5,0,0.9,0.2,1.2,0.5s0.5,0.8,0.5,1.2
		c0,0.5-0.2,0.9-0.5,1.2S70.5,9,70,9c-0.5,0-0.9-0.2-1.2-0.5S68.3,7.7,68.3,7.2z M68.5,10.3h3V20h-3V10.3z"/>
	<path class="st1" d="M73.7,10.3h2.9v1.3h0c0.1-0.2,0.2-0.4,0.4-0.6s0.4-0.4,0.6-0.5s0.5-0.3,0.8-0.4c0.3-0.1,0.6-0.1,1-0.1
		c0.8,0,1.4,0.1,1.8,0.3c0.5,0.2,0.8,0.6,1.1,1s0.4,0.9,0.5,1.5C83,13.4,83,14,83,14.6V20h-3v-4.8c0-0.3,0-0.6,0-0.9
		c0-0.3-0.1-0.6-0.2-0.8s-0.3-0.5-0.5-0.6s-0.5-0.2-0.9-0.2s-0.7,0.1-0.9,0.2c-0.2,0.1-0.4,0.3-0.5,0.6c-0.1,0.2-0.2,0.5-0.2,0.8
		s-0.1,0.6-0.1,0.9V20h-3V10.3z"/>
	<path class="st1" d="M95.4,19.2c0,1.8-0.5,3.2-1.4,4.2c-0.9,1-2.3,1.4-4.2,1.4c-0.9,0-1.7-0.1-2.6-0.3s-1.6-0.6-2.3-1.1l1.7-2.5
		c0.5,0.4,1,0.7,1.5,0.9c0.5,0.2,1.1,0.3,1.7,0.3c0.9,0,1.6-0.2,2-0.7c0.4-0.4,0.6-1,0.6-1.7v-0.9h0c-0.3,0.5-0.8,0.8-1.3,1
		c-0.5,0.2-1,0.3-1.5,0.3c-0.7,0-1.4-0.1-2-0.4c-0.6-0.2-1.1-0.6-1.5-1c-0.4-0.4-0.7-1-1-1.6s-0.3-1.3-0.3-2c0-0.6,0.1-1.3,0.3-1.9
		c0.2-0.6,0.5-1.2,0.9-1.6c0.4-0.5,0.8-0.8,1.4-1.1c0.5-0.3,1.2-0.4,1.9-0.4c0.4,0,0.8,0,1.2,0.1c0.4,0.1,0.7,0.2,1,0.4
		s0.5,0.3,0.7,0.5c0.2,0.2,0.4,0.4,0.5,0.5h0v-1.3h2.8V19.2z M87.8,15.1c0,0.3,0.1,0.6,0.2,0.9c0.1,0.3,0.3,0.5,0.5,0.8
		c0.2,0.2,0.5,0.4,0.8,0.5c0.3,0.1,0.6,0.2,1,0.2c0.3,0,0.6-0.1,0.9-0.2c0.3-0.1,0.5-0.3,0.8-0.5c0.2-0.2,0.4-0.5,0.5-0.8
		c0.1-0.3,0.2-0.6,0.2-0.9s-0.1-0.6-0.2-0.9c-0.1-0.3-0.3-0.5-0.5-0.8c-0.2-0.2-0.5-0.4-0.8-0.5c-0.3-0.1-0.6-0.2-0.9-0.2
		c-0.3,0-0.7,0.1-1,0.2c-0.3,0.1-0.5,0.3-0.8,0.5c-0.2,0.2-0.4,0.5-0.5,0.8C87.9,14.5,87.8,14.8,87.8,15.1z"/>
</g>
<g class="st0">
	<path class="st1" d="M6.6,40.1c-0.4-0.5-1-0.8-1.7-0.8c-0.3,0-0.5,0.1-0.7,0.2c-0.2,0.1-0.4,0.3-0.4,0.6c0,0.2,0.1,0.4,0.4,0.5
		S4.6,40.9,5,41c0.4,0.1,0.8,0.2,1.2,0.3c0.4,0.1,0.8,0.3,1.2,0.5c0.4,0.2,0.7,0.5,0.9,0.9c0.2,0.4,0.4,0.9,0.4,1.5
		c0,0.6-0.1,1.1-0.4,1.5c-0.3,0.4-0.6,0.7-1.1,1c-0.4,0.2-0.9,0.4-1.4,0.5c-0.5,0.1-1.1,0.2-1.6,0.2c-0.7,0-1.4-0.1-2.1-0.3
		c-0.7-0.2-1.3-0.5-1.8-1l1.8-2c0.3,0.3,0.6,0.6,0.9,0.8C3.6,44.9,4,45,4.4,45c0.3,0,0.7,0,0.9-0.2c0.3-0.1,0.4-0.3,0.4-0.5
		c0-0.3-0.1-0.4-0.4-0.6c-0.2-0.1-0.6-0.2-0.9-0.3c-0.4-0.1-0.8-0.2-1.2-0.3C2.8,43,2.4,42.8,2,42.6c-0.4-0.2-0.7-0.5-0.9-0.8
		c-0.2-0.4-0.4-0.9-0.4-1.5c0-0.6,0.1-1.1,0.3-1.5c0.2-0.4,0.5-0.8,0.9-1c0.4-0.3,0.8-0.5,1.3-0.6c0.5-0.1,1-0.2,1.5-0.2
		c0.6,0,1.3,0.1,1.9,0.3c0.7,0.2,1.2,0.5,1.7,1L6.6,40.1z"/>
	<path class="st1" d="M16.9,39.7h-2.6v3.2c0,0.3,0,0.5,0,0.7c0,0.2,0.1,0.4,0.2,0.6s0.2,0.3,0.4,0.4c0.2,0.1,0.5,0.1,0.8,0.1
		c0.2,0,0.4,0,0.6,0c0.3,0,0.5-0.1,0.6-0.2v2.5c-0.3,0.1-0.7,0.2-1,0.2c-0.4,0-0.7,0.1-1.1,0.1c-0.5,0-1-0.1-1.4-0.2
		c-0.4-0.1-0.8-0.3-1.1-0.5s-0.6-0.5-0.8-0.9s-0.3-0.8-0.3-1.4v-4.6H9.4v-2.4h1.9v-2.9h3v2.9h2.6V39.7z"/>
	<path class="st1" d="M18.5,37.3h3v1.6h0c0.3-0.6,0.7-1,1.1-1.3c0.4-0.3,1-0.5,1.7-0.5c0.2,0,0.3,0,0.5,0c0.2,0,0.3,0,0.5,0.1v2.7
		c-0.2-0.1-0.4-0.1-0.6-0.1c-0.2,0-0.4-0.1-0.6-0.1c-0.6,0-1,0.1-1.4,0.2c-0.3,0.2-0.6,0.4-0.8,0.7c-0.2,0.3-0.3,0.6-0.4,1
		c-0.1,0.4-0.1,0.8-0.1,1.3V47h-3V37.3z"/>
	<path class="st1" d="M35.4,45.3c-0.5,0.6-1.1,1.1-1.8,1.4s-1.5,0.5-2.3,0.5c-0.7,0-1.5-0.1-2.1-0.4c-0.7-0.2-1.2-0.6-1.7-1
		c-0.5-0.4-0.9-1-1.1-1.6c-0.3-0.6-0.4-1.3-0.4-2.1c0-0.8,0.1-1.5,0.4-2.1c0.3-0.6,0.7-1.2,1.1-1.6c0.5-0.4,1.1-0.8,1.7-1
		c0.7-0.2,1.4-0.4,2.1-0.4c0.7,0,1.3,0.1,1.9,0.4c0.6,0.2,1,0.6,1.4,1c0.4,0.4,0.7,1,0.9,1.6s0.3,1.3,0.3,2.1v0.9h-7
		c0.1,0.6,0.4,1,0.8,1.4s0.9,0.5,1.5,0.5c0.5,0,0.9-0.1,1.2-0.3s0.6-0.5,0.9-0.8L35.4,45.3z M32.9,41c0-0.5-0.2-0.9-0.5-1.3
		c-0.3-0.4-0.8-0.5-1.3-0.5c-0.3,0-0.6,0.1-0.9,0.2c-0.3,0.1-0.5,0.2-0.6,0.4c-0.2,0.2-0.3,0.4-0.4,0.6C29,40.6,29,40.8,28.9,41
		H32.9z"/>
	<path class="st1" d="M46.9,45.3c-0.5,0.6-1.1,1.1-1.8,1.4s-1.5,0.5-2.3,0.5c-0.7,0-1.5-0.1-2.1-0.4c-0.7-0.2-1.2-0.6-1.7-1
		c-0.5-0.4-0.9-1-1.1-1.6c-0.3-0.6-0.4-1.3-0.4-2.1c0-0.8,0.1-1.5,0.4-2.1c0.3-0.6,0.7-1.2,1.1-1.6c0.5-0.4,1.1-0.8,1.7-1
		c0.7-0.2,1.4-0.4,2.1-0.4c0.7,0,1.3,0.1,1.9,0.4c0.6,0.2,1,0.6,1.4,1c0.4,0.4,0.7,1,0.9,1.6s0.3,1.3,0.3,2.1v0.9h-7
		c0.1,0.6,0.4,1,0.8,1.4s0.9,0.5,1.5,0.5c0.5,0,0.9-0.1,1.2-0.3s0.6-0.5,0.9-0.8L46.9,45.3z M44.4,41c0-0.5-0.2-0.9-0.5-1.3
		c-0.3-0.4-0.8-0.5-1.3-0.5c-0.3,0-0.6,0.1-0.9,0.2c-0.3,0.1-0.5,0.2-0.6,0.4c-0.2,0.2-0.3,0.4-0.4,0.6c-0.1,0.2-0.2,0.5-0.2,0.7
		H44.4z"/>
	<path class="st1" d="M55.8,39.7h-2.6v3.2c0,0.3,0,0.5,0,0.7c0,0.2,0.1,0.4,0.2,0.6s0.2,0.3,0.4,0.4c0.2,0.1,0.4,0.1,0.8,0.1
		c0.2,0,0.4,0,0.6,0c0.3,0,0.5-0.1,0.6-0.2v2.5c-0.3,0.1-0.7,0.2-1,0.2c-0.4,0-0.7,0.1-1.1,0.1c-0.5,0-1-0.1-1.4-0.2
		c-0.4-0.1-0.8-0.3-1.1-0.5s-0.6-0.5-0.8-0.9s-0.3-0.8-0.3-1.4v-4.6h-1.9v-2.4h1.9v-2.9h3v2.9h2.6V39.7z"/>
	<path class="st1" d="M69.4,45.8L69.4,45.8c-0.4,0.5-0.8,0.9-1.4,1.1s-1.1,0.3-1.8,0.3c-0.5,0-0.9-0.1-1.3-0.2
		c-0.4-0.1-0.8-0.3-1.1-0.6c-0.3-0.3-0.6-0.6-0.8-0.9c-0.2-0.4-0.3-0.8-0.3-1.3c0-0.6,0.1-1,0.3-1.4c0.2-0.4,0.5-0.7,0.8-1
		c0.4-0.3,0.8-0.5,1.2-0.6c0.5-0.1,0.9-0.2,1.4-0.3c0.5-0.1,1-0.1,1.5-0.1c0.5,0,0.9,0,1.3,0c0-0.5-0.2-1-0.6-1.3
		c-0.4-0.3-0.8-0.5-1.3-0.5c-0.5,0-0.9,0.1-1.3,0.3c-0.4,0.2-0.8,0.5-1.1,0.9l-1.6-1.6c0.6-0.5,1.2-0.9,2-1.2
		c0.7-0.3,1.5-0.4,2.3-0.4c0.9,0,1.6,0.1,2.2,0.3c0.6,0.2,1,0.5,1.4,1s0.6,1,0.7,1.6c0.1,0.6,0.2,1.3,0.2,2.1V47h-2.8V45.8z
		 M68.6,42.7c-0.2,0-0.5,0-0.8,0c-0.3,0-0.7,0.1-1,0.2c-0.3,0.1-0.6,0.2-0.8,0.4s-0.3,0.4-0.3,0.8c0,0.4,0.2,0.6,0.5,0.8
		c0.3,0.2,0.6,0.3,1,0.3c0.3,0,0.6,0,0.9-0.1c0.3-0.1,0.5-0.2,0.7-0.3s0.4-0.3,0.5-0.6c0.1-0.2,0.2-0.5,0.2-0.8v-0.6H68.6z"/>
	<path class="st1" d="M74,37.3h3v1.6h0c0.3-0.6,0.7-1,1.1-1.3c0.4-0.3,1-0.5,1.7-0.5c0.2,0,0.3,0,0.5,0c0.2,0,0.3,0,0.5,0.1v2.7
		c-0.2-0.1-0.4-0.1-0.6-0.1s-0.4-0.1-0.7-0.1c-0.6,0-1,0.1-1.4,0.2c-0.3,0.2-0.6,0.4-0.8,0.7c-0.2,0.3-0.3,0.6-0.4,1
		C77,42,77,42.5,77,42.9V47h-3V37.3z"/>
	<path class="st1" d="M88.8,39.7h-2.6v3.2c0,0.3,0,0.5,0,0.7c0,0.2,0.1,0.4,0.2,0.6s0.2,0.3,0.4,0.4c0.2,0.1,0.4,0.1,0.8,0.1
		c0.2,0,0.4,0,0.6,0c0.3,0,0.5-0.1,0.6-0.2v2.5c-0.3,0.1-0.7,0.2-1,0.2c-0.4,0-0.7,0.1-1.1,0.1c-0.5,0-1-0.1-1.4-0.2
		c-0.4-0.1-0.8-0.3-1.1-0.5c-0.3-0.2-0.6-0.5-0.8-0.9c-0.2-0.4-0.3-0.8-0.3-1.4v-4.6h-1.9v-2.4h1.9v-2.9h3v2.9h2.6V39.7z"/>
</g>
</svg>
